<svg width="852" height="1096" viewBox="0 0 852 1096" fill="none" xmlns="http://www.w3.org/2000/svg">
<path d="M94.1248 62.979C-56.6356 85.2909 -135.616 248.751 -156.261 327.692C-292.449 609.949 -148.745 829.754 -59.8699 904.374C311.188 1133.25 511.793 973.637 565.713 865.224C600.746 794.786 616.99 647.236 503.78 613.466C362.267 571.253 228.011 394.291 286.623 253.665C345.236 113.038 282.575 35.0891 94.1248 62.979Z" fill="#F44D8D"/>
<path d="M389.946 376.088C443.752 321.902 613.517 344.031 691.674 361.868C834.014 394.355 843.65 425.274 828.533 499.265C811.013 585.017 752.743 665.057 715.484 693.48C678.226 721.902 637.825 721.4 601.9 696.789C565.976 672.179 587.789 641.77 582.69 594.449C578.612 556.593 489.399 517.085 445.303 502.063C399.144 486.339 336.14 430.274 389.946 376.088Z" fill="#F44D8D"/>
</svg>
