<svg width="1383" height="1144" viewBox="0 0 1383 1144" fill="none" xmlns="http://www.w3.org/2000/svg">
<circle cx="1216" cy="454" r="48" fill="#F9D538"/>
<circle cx="1284.5" cy="338.5" r="83.5" fill="#F9E428"/>
<circle cx="233.5" cy="436.5" r="30.5" fill="#F9E428"/>
<circle cx="30.5" cy="123.5" r="30.5" fill="#F9E428"/>
<circle cx="108.5" cy="224.5" r="64.5" fill="#F9E428"/>
<circle cx="1333.5" cy="140.5" r="30.5" fill="#F9E428"/>
<circle cx="1206.5" cy="92.5" r="5.5" fill="#F9E428"/>
<circle cx="162.5" cy="519.5" r="10.5" fill="#F9E428"/>
<circle cx="125.5" cy="56.5" r="15.5" fill="#F9E428"/>
<circle cx="1258.5" cy="213.5" r="5.5" fill="#F9E428"/>
<circle cx="1279.5" cy="10.5" r="10.5" fill="#F9E428"/>
<circle cx="109" cy="706" r="48" fill="#F9E428"/>
<circle r="21" transform="matrix(-1 0 0 1 88 905)" fill="#F9D23B"/>
<circle r="21" transform="matrix(-1 0 0 1 469 926)" fill="#F9D23B"/>
<circle r="21" transform="matrix(-1 0 0 1 889 1050)" fill="#F9D23B"/>
<circle r="21" transform="matrix(-1 0 0 1 1244 905)" fill="#F9D835"/>
<circle r="40" transform="matrix(-1 0 0 1 1343 606)" fill="#F9E428"/>
<circle r="10" transform="matrix(-1 0 0 1 1210 1081)" fill="#F9D538"/>
<circle r="10" transform="matrix(-1 0 0 1 136 1019)" fill="#F9D33A"/>
<circle r="10" transform="matrix(-1 0 0 1 540 1134)" fill="#F9D33A"/>
<circle r="10" transform="matrix(-1 0 0 1 1113.69 509)" fill="#F7DC2B"/>
</svg>
