<svg width="497" height="362" viewBox="0 0 497 362" fill="none" xmlns="http://www.w3.org/2000/svg">
<path d="M122 305H384C398.912 305 411 317.088 411 332C411 346.912 398.912 359 384 359H122V305Z" fill="#F9F8E7"/>
<path d="M119 305H384C398.912 305 411 317.088 411 332V332C411 346.912 398.912 359 384 359H119" stroke="#F9E428" stroke-width="6"/>
<path d="M167.222 213.517L207.613 230.561L218.151 204.266L177.74 187.229C176.407 186.665 174.98 186.374 173.539 186.373C172.099 186.372 170.674 186.661 169.346 187.224C168.018 187.787 166.814 188.613 165.803 189.653C164.791 190.694 163.992 191.93 163.452 193.289L161.206 198.89C160.66 200.248 160.382 201.704 160.389 203.174C160.396 204.645 160.687 206.101 161.245 207.46C161.804 208.819 162.62 210.053 163.645 211.092C164.671 212.132 165.886 212.956 167.222 213.517Z" fill="#15BA7B"/>
<path d="M239.345 302.611L239.732 279.916C239.776 277.299 239.297 274.708 238.323 272.29C237.348 269.872 235.896 267.676 234.051 265.826C232.205 263.976 230.002 262.51 227.567 261.51C225.133 260.51 222.514 259.997 219.861 260L196.877 260L196.151 302.611L239.345 302.611Z" fill="#15BA7B"/>
<path d="M224.596 99.8083C224.672 103.246 226.063 106.531 228.472 108.963C230.88 111.394 234.116 112.778 237.486 112.818C240.856 112.859 244.094 111.553 246.506 109.179C248.919 106.806 250.316 103.554 250.397 100.119C250.403 92.7921 244.631 78.385 237.512 78.2994C230.392 78.2138 224.602 92.5536 224.596 99.8083Z" fill="#F44D8D"/>
<path opacity="0.2" d="M224.589 108.254C224.665 111.691 226.056 114.977 228.465 117.408C230.874 119.839 234.109 121.223 237.479 121.264C240.849 121.304 244.087 119.998 246.5 117.625C248.912 115.252 250.309 112 250.39 108.564C250.397 101.259 244.624 86.8303 237.505 86.7447C230.385 86.6591 224.596 101.028 224.589 108.254Z" fill="#2C374C"/>
<path d="M329.422 122.948C331.613 126.138 335.58 131.908 335.58 140.965" stroke="#4F4F4F" stroke-width="2"/>
<circle cx="335.564" cy="140.264" r="4.09819" transform="rotate(80.2548 335.564 140.264)" fill="#5C5858"/>
<path d="M331.504 145.406C331.504 145.406 331.47 144.04 335.567 143.938C339.664 143.835 339.698 145.201 339.698 145.201L342.363 169.731C342.363 169.731 342.397 171.096 336.252 171.25C330.107 171.404 330.072 170.039 330.072 170.039L331.504 145.406Z" fill="#5C5858"/>
<path d="M275.847 55.0366C278.418 54.5961 281.041 55.4363 282.878 57.2878L346.354 121.282C347.515 122.452 346.841 124.445 345.208 124.671L257.581 136.785C255.236 137.109 252.869 136.378 251.115 134.789L184.053 74.0461C182.816 72.9263 183.413 70.8743 185.058 70.5926L275.847 55.0366Z" fill="#45504B"/>
<path opacity="0.1" fill-rule="evenodd" clip-rule="evenodd" d="M342.798 117.696L346.354 121.281C347.515 122.452 346.841 124.445 345.208 124.671L257.581 136.784C255.237 137.108 252.869 136.378 251.115 134.789L187.231 76.9248C208.459 77.061 238.185 81.607 270.274 90.3563C299.125 98.2228 324.606 108.047 342.798 117.696Z" fill="#252323"/>
<path d="M248.437 98.8777C247.609 101.657 247.887 104.669 249.212 107.265C250.537 109.86 252.803 111.833 255.522 112.757C258.241 113.68 261.195 113.482 263.748 112.204C266.301 110.926 268.249 108.67 269.172 105.923C270.991 100.102 270.046 87.0436 264.312 85.0749C258.579 83.1062 250.291 93.0071 248.437 98.8777Z" fill="#F44D8D"/>
<path opacity="0.2" d="M246.239 105.647C245.41 108.424 245.686 111.435 247.009 114.031C248.332 116.626 250.595 118.6 253.312 119.526C256.029 120.452 258.982 120.257 261.536 118.983C264.09 117.709 266.04 115.458 266.967 112.713C268.785 106.893 267.847 93.8342 262.114 91.8655C256.38 89.8969 248.058 99.7972 246.239 105.647Z" fill="#2C374C"/>
<path d="M307.309 155.846C306.074 155.832 304.851 156.065 303.71 156.533C302.568 157.002 301.531 157.696 300.657 158.576C299.783 159.456 299.09 160.505 298.616 161.663C298.142 162.821 297.898 164.065 297.897 165.325C297.896 166.585 298.138 167.835 298.61 169.004C299.081 170.174 299.773 171.239 300.646 172.14C301.518 173.042 302.554 173.761 303.695 174.256C304.835 174.752 306.058 175.015 307.293 175.03C312.501 175.092 322.759 170.914 322.763 165.624C322.768 160.333 312.517 155.909 307.309 155.846Z" fill="#F44D8D"/>
<path opacity="0.2" d="M301.243 155.772C300.008 155.757 298.785 155.991 297.644 156.459C296.502 156.927 295.465 157.621 294.591 158.502C293.717 159.382 293.024 160.431 292.55 161.589C292.076 162.747 291.832 163.991 291.831 165.251C291.83 166.51 292.072 167.76 292.544 168.93C293.015 170.099 293.707 171.165 294.58 172.066C295.452 172.967 296.488 173.686 297.629 174.182C298.769 174.678 299.992 174.94 301.227 174.955C306.435 175.018 316.693 170.84 316.697 165.549C316.702 160.259 306.465 155.835 301.243 155.772Z" fill="#2C374C"/>
<path d="M307.295 171.294C306.06 171.28 304.837 171.513 303.696 171.981C302.554 172.45 301.517 173.144 300.643 174.024C299.769 174.904 299.076 175.953 298.602 177.111C298.129 178.269 297.884 179.514 297.883 180.773C297.882 182.033 298.124 183.283 298.596 184.453C299.068 185.622 299.759 186.688 300.632 187.589C301.504 188.49 302.54 189.209 303.681 189.705C304.821 190.201 306.044 190.463 307.279 190.478C312.487 190.541 322.745 186.363 322.749 181.072C322.754 175.782 312.503 171.357 307.295 171.294Z" fill="#F44D8D"/>
<path opacity="0.2" d="M301.23 171.22C299.995 171.205 298.772 171.439 297.63 171.907C296.489 172.375 295.452 173.069 294.578 173.95C293.704 174.83 293.01 175.879 292.537 177.037C292.063 178.195 291.819 179.439 291.818 180.699C291.817 181.959 292.059 183.209 292.531 184.378C293.002 185.548 293.694 186.614 294.566 187.515C295.439 188.416 296.475 189.135 297.616 189.631C298.756 190.127 299.979 190.389 301.214 190.404C306.422 190.467 316.679 186.289 316.684 180.998C316.688 175.708 306.452 171.283 301.23 171.22Z" fill="#2C374C"/>
<path d="M307.284 186.779C306.028 186.729 304.777 186.936 303.606 187.388C302.435 187.84 301.368 188.528 300.466 189.411C299.565 190.294 298.848 191.354 298.358 192.529C297.869 193.704 297.616 194.97 297.615 196.251C297.613 197.533 297.864 198.805 298.352 199.991C298.84 201.178 299.555 202.255 300.455 203.16C301.354 204.065 302.421 204.778 303.591 205.258C304.761 205.738 306.011 205.976 307.267 205.956C312.476 206.018 322.734 201.84 322.738 196.55C322.742 191.259 312.492 186.842 307.284 186.779Z" fill="#F44D8D"/>
<path opacity="0.2" d="M301.218 186.705C299.962 186.655 298.712 186.862 297.541 187.314C296.37 187.766 295.302 188.454 294.401 189.337C293.499 190.22 292.783 191.28 292.293 192.455C291.803 193.63 291.55 194.896 291.549 196.177C291.548 197.459 291.799 198.731 292.287 199.917C292.774 201.104 293.489 202.181 294.389 203.086C295.289 203.991 296.355 204.704 297.526 205.184C298.696 205.664 299.946 205.902 301.202 205.882C306.41 205.944 316.668 201.766 316.673 196.476C316.677 191.185 306.44 186.768 301.218 186.705Z" fill="#2C374C"/>
<path d="M307.27 202.256C304.776 202.226 302.383 203.208 300.618 204.985C298.853 206.763 297.86 209.191 297.858 211.735C297.856 214.278 298.845 216.73 300.607 218.55C302.369 220.37 304.76 221.409 307.254 221.439C312.462 221.502 322.72 217.324 322.724 212.034C322.729 206.743 312.478 202.319 307.27 202.256Z" fill="#F44D8D"/>
<path opacity="0.2" d="M301.205 202.182C298.711 202.152 296.318 203.134 294.553 204.912C292.788 206.689 291.795 209.117 291.793 211.661C291.791 214.205 292.779 216.656 294.542 218.477C296.304 220.297 298.695 221.336 301.189 221.366C306.397 221.429 316.654 217.251 316.659 211.96C316.663 206.669 306.427 202.245 301.205 202.182Z" fill="#2C374C"/>
<path d="M307.257 217.691C306.001 217.641 304.75 217.848 303.579 218.3C302.408 218.752 301.34 219.44 300.439 220.323C299.538 221.206 298.821 222.266 298.331 223.441C297.841 224.615 297.589 225.881 297.587 227.163C297.586 228.444 297.837 229.716 298.325 230.903C298.813 232.089 299.528 233.167 300.427 234.071C301.327 234.976 302.394 235.689 303.564 236.17C304.734 236.65 305.984 236.887 307.24 236.867C312.448 236.929 322.706 232.751 322.711 227.468C322.715 222.185 312.465 217.753 307.257 217.691Z" fill="#F44D8D"/>
<path opacity="0.2" d="M301.191 217.618C299.935 217.568 298.684 217.775 297.513 218.227C296.342 218.679 295.275 219.367 294.373 220.25C293.472 221.133 292.755 222.193 292.265 223.368C291.776 224.543 291.523 225.809 291.522 227.091C291.521 228.372 291.771 229.644 292.259 230.831C292.747 232.017 293.462 233.095 294.362 233.999C295.262 234.904 296.328 235.618 297.498 236.098C298.668 236.578 299.918 236.815 301.175 236.795C306.383 236.858 316.64 232.68 316.645 227.396C316.649 222.113 306.413 217.681 301.191 217.618Z" fill="#2C374C"/>
<path d="M307.245 233.17C304.751 233.14 302.359 234.121 300.593 235.899C298.828 237.677 297.836 240.104 297.833 242.648C297.831 245.192 298.82 247.644 300.582 249.464C302.344 251.284 304.735 252.323 307.229 252.353C312.437 252.416 322.695 248.238 322.699 242.947C322.704 237.657 312.453 233.232 307.245 233.17Z" fill="#F44D8D"/>
<path opacity="0.2" d="M301.177 233.093C298.683 233.063 296.29 234.045 294.525 235.823C292.76 237.6 291.767 240.028 291.765 242.572C291.763 245.116 292.752 247.568 294.514 249.388C296.276 251.208 298.667 252.247 301.161 252.277C306.369 252.34 316.627 248.162 316.631 242.871C316.636 237.581 306.399 233.156 301.177 233.093Z" fill="#2C374C"/>
<path d="M350.654 262.753C350.645 273.59 346.415 283.933 338.896 291.506C331.377 299.078 321.183 303.261 310.558 303.133L239.762 302.282C230.101 302.164 220.84 298.14 214.01 291.094C207.181 284.048 203.342 274.556 203.338 264.702L203.449 132.315L310.673 167.005L310.593 262.271L350.654 262.753Z" fill="#14E298"/>
<path d="M180.649 165.443C180.664 147.863 187.524 131.087 199.721 118.803C211.919 106.519 228.453 99.7344 245.688 99.9417C262.923 100.149 279.446 107.331 291.622 119.908C303.798 132.485 310.631 149.426 310.616 167.006L180.649 165.443Z" fill="#14E298"/>
<path d="M250.101 227.075C250.102 224.938 249.69 222.817 248.889 220.834C248.088 218.851 246.913 217.044 245.432 215.516C243.951 213.989 242.193 212.77 240.258 211.931C238.322 211.091 236.248 210.647 234.153 210.624L203.334 210.253L203.282 272.958C203.28 276.752 204.012 280.517 205.434 284.038C206.856 287.559 208.941 290.768 211.571 293.48C214.2 296.192 217.322 298.356 220.758 299.846C224.193 301.337 227.876 302.126 231.595 302.168L250.037 302.39L250.101 227.075Z" fill="#F9E428"/>
<path d="M205.034 233.213C210.186 231.21 215.67 230.216 221.203 230.284C226.745 230.372 232.236 231.497 237.403 233.603L205.034 233.213Z" fill="#C9B524"/>
<path d="M206.257 256.111C211.409 254.108 216.894 253.114 222.427 253.182C227.957 253.275 233.435 254.4 238.591 256.5L206.257 256.111Z" fill="#C9B524"/>
<path d="M211.109 279.045C216.26 277.039 221.746 276.048 227.279 276.123C232.808 276.216 238.286 277.338 243.443 279.434L211.109 279.045Z" fill="#C9B524"/>
<path d="M276.909 302.898L276.73 280.231C276.709 277.616 276.165 275.024 275.129 272.601C274.093 270.178 272.585 267.973 270.691 266.111C268.797 264.248 266.554 262.766 264.091 261.748C261.628 260.731 258.993 260.198 256.337 260.18L233.324 260L233.66 302.56L276.909 302.898Z" fill="#3FEFAC"/>
<path d="M234.629 264.938L233.412 264.929L233.374 260.043L234.59 260.052C234.833 260.053 235.074 260.102 235.299 260.194C235.524 260.287 235.729 260.422 235.902 260.593C236.075 260.763 236.213 260.964 236.307 261.186C236.401 261.408 236.45 261.645 236.451 261.883L236.46 263.08C236.459 263.566 236.268 264.029 235.928 264.375C235.587 264.721 235.122 264.922 234.629 264.938Z" fill="#EFEFEF"/>
<path d="M234.668 269.763L233.451 269.753L233.413 264.881L234.63 264.891C235.119 264.895 235.59 265.09 235.939 265.433C236.288 265.776 236.487 266.24 236.49 266.722L236.5 267.961C236.502 268.199 236.456 268.435 236.365 268.655C236.274 268.874 236.14 269.074 235.969 269.241C235.799 269.408 235.597 269.54 235.374 269.63C235.15 269.72 234.91 269.765 234.668 269.763Z" fill="#EFEFEF"/>
<path d="M234.7 274.643L233.479 274.634L233.441 269.755L234.662 269.764C235.153 269.77 235.624 269.966 235.974 270.309C236.324 270.652 236.524 271.114 236.529 271.595L236.539 272.792C236.536 273.276 236.343 273.738 236.001 274.082C235.659 274.427 235.194 274.627 234.7 274.643Z" fill="#EFEFEF"/>
<path d="M226.332 166.678L204.341 166.413L204.331 177.625C204.329 180.599 205.485 183.464 207.544 185.592C209.604 187.719 212.399 188.934 215.314 188.969C216.758 188.988 218.187 188.716 219.522 188.169C220.856 187.623 222.069 186.812 223.092 185.784C224.114 184.756 224.925 183.53 225.48 182.177C226.034 180.823 226.321 179.369 226.323 177.897L226.332 166.678Z" fill="#2C374C"/>
<path d="M215.351 177.68L209.074 177.604C209.074 177.604 202.791 177.529 207.495 183.995C207.495 183.995 210.718 187.924 215.427 187.98C220.136 188.037 223.204 184.234 223.204 184.234C223.204 184.234 227.919 177.881 221.635 177.805L215.351 177.68Z" fill="#F44D8D"/>
<path opacity="0.2" d="M247.727 250.518L280.883 217.44L260.464 197.804L227.283 230.907C226.255 231.927 225.446 233.138 224.901 234.471C224.356 235.803 224.086 237.231 224.108 238.672C224.13 240.113 224.442 241.539 225.026 242.867C225.611 244.196 226.457 245.401 227.515 246.414L231.863 250.595C234.004 252.639 236.875 253.778 239.847 253.763C242.82 253.749 245.653 252.582 247.727 250.518Z" fill="#2C374C"/>
<path d="M249.082 246.642L280.065 215.732L259.64 196.091L228.623 227.035C227.595 228.054 226.785 229.264 226.239 230.597C225.694 231.929 225.424 233.356 225.445 234.797C225.466 236.237 225.778 237.663 226.362 238.991C226.947 240.32 227.792 241.525 228.85 242.537L233.183 246.704C235.323 248.76 238.201 249.908 241.182 249.896C244.163 249.885 247.005 248.714 249.082 246.642Z" fill="#3FEFAC"/>
<path d="M223.293 145.916C223.889 145.923 224.461 145.688 224.884 145.263C225.306 144.838 225.543 144.257 225.544 143.649C225.611 141.303 226.572 139.086 228.224 137.469C229.876 135.852 232.088 134.963 234.389 134.991C236.691 135.019 238.901 135.961 240.55 137.617C242.199 139.274 243.157 141.514 243.22 143.861C243.22 144.47 243.456 145.056 243.877 145.491C244.299 145.927 244.871 146.175 245.467 146.182C246.064 146.19 246.636 145.955 247.058 145.53C247.48 145.104 247.718 144.524 247.718 143.915C247.72 142.127 247.376 140.351 246.706 138.691C246.036 137.03 245.054 135.517 243.815 134.237C242.576 132.958 241.105 131.937 239.485 131.233C237.866 130.529 236.129 130.155 234.376 130.134C232.622 130.113 230.885 130.445 229.265 131.11C227.644 131.775 226.171 132.76 224.93 134.01C223.689 135.26 222.704 136.75 222.031 138.394C221.359 140.039 221.012 141.806 221.01 143.594C221.01 143.899 221.069 144.201 221.184 144.483C221.299 144.765 221.468 145.021 221.68 145.237C221.893 145.453 222.144 145.625 222.421 145.741C222.698 145.858 222.994 145.917 223.293 145.916Z" fill="#2C374C"/>
<path d="M183.217 145.434C183.814 145.442 184.386 145.207 184.808 144.782C185.23 144.356 185.468 143.776 185.468 143.167C185.535 140.821 186.497 138.604 188.148 136.988C189.8 135.371 192.012 134.482 194.314 134.51C196.616 134.537 198.826 135.48 200.475 137.136C202.124 138.792 203.082 141.032 203.144 143.38C203.144 143.988 203.38 144.575 203.802 145.01C204.223 145.445 204.795 145.694 205.392 145.701C205.988 145.708 206.56 145.473 206.982 145.048C207.405 144.623 207.642 144.042 207.643 143.434C207.646 139.822 206.242 136.34 203.739 133.756C201.237 131.171 197.842 129.695 194.3 129.653C190.759 129.61 187.361 131.005 184.854 133.529C182.348 136.053 180.938 139.501 180.935 143.113C180.936 143.417 180.995 143.718 181.111 144C181.226 144.282 181.395 144.538 181.607 144.754C181.819 144.97 182.071 145.141 182.347 145.258C182.624 145.375 182.919 145.435 183.217 145.434Z" fill="#2C374C"/>
<path fill-rule="evenodd" clip-rule="evenodd" d="M232.263 81.3902C237.099 76.7034 252.222 76.2362 269.071 80.6929C286.373 85.2693 299.661 93.4944 301.164 100.098C305.942 109.836 306.701 119.352 300.539 131.509C293.323 125.665 267.598 115.034 218.334 105.676C217.109 100.218 216.22 91.2554 232.263 81.3902Z" fill="#3B4440"/>
<path opacity="0.2" fill-rule="evenodd" clip-rule="evenodd" d="M274.911 82.422L266.646 83.5646C264.302 83.8887 261.934 83.1581 260.18 81.5693L256.469 78.2075C260.454 78.7134 264.705 79.5376 269.071 80.6926C271.076 81.2228 273.027 81.802 274.911 82.422Z" fill="#1E4233"/>
<rect x="352.5" y="7.5" width="7.07106" height="7.07106" transform="rotate(45 352.5 7.5)" fill="#C2D4FF"/>
<rect x="337.5" y="22.5" width="7.07106" height="7.07106" transform="rotate(45 337.5 22.5)" fill="#C2D4FF"/>
<rect x="332.5" y="12.5" width="7.07106" height="7.07106" transform="rotate(-45 332.5 12.5)" fill="#C2D4FF"/>
<rect x="347.5" y="27.5" width="7.07106" height="7.07106" transform="rotate(-45 347.5 27.5)" fill="#C2D4FF"/>
<circle cx="106" cy="40" r="31" stroke="#C2D4FF" stroke-width="10" stroke-dasharray="4 15"/>
<circle cx="394.367" cy="115.367" r="18" transform="rotate(-22.1457 394.367 115.367)" stroke="#C2D4FF" stroke-width="6" stroke-dasharray="4 10"/>
<path fill-rule="evenodd" clip-rule="evenodd" d="M205.409 30.5906C209.21 30.8832 212 31.8511 212 33C212 34.1489 209.21 35.1168 205.409 35.4094C205.117 39.21 204.149 42 203 42C201.851 42 200.883 39.21 200.591 35.4094C196.79 35.1168 194 34.1489 194 33C194 31.8511 196.79 30.8832 200.591 30.5906C200.883 26.79 201.851 24 203 24C204.149 24 205.117 26.79 205.409 30.5906Z" fill="#C2D4FF"/>
<path fill-rule="evenodd" clip-rule="evenodd" d="M107.339 149.661C109.45 149.824 111 150.362 111 151C111 151.638 109.45 152.176 107.339 152.339C107.176 154.45 106.638 156 106 156C105.362 156 104.824 154.45 104.661 152.339C102.55 152.176 101 151.638 101 151C101 150.362 102.55 149.824 104.661 149.661C104.824 147.55 105.362 146 106 146C106.638 146 107.176 147.55 107.339 149.661Z" fill="#C2D4FF"/>
<path fill-rule="evenodd" clip-rule="evenodd" d="M407.339 179.661C409.45 179.824 411 180.362 411 181C411 181.638 409.45 182.176 407.339 182.339C407.176 184.45 406.638 186 406 186C405.362 186 404.824 184.45 404.661 182.339C402.55 182.176 401 181.638 401 181C401 180.362 402.55 179.824 404.661 179.661C404.824 177.55 405.362 176 406 176C406.638 176 407.176 177.55 407.339 179.661Z" fill="#C2D4FF"/>
<path d="M330 331H369V354L349.5 345.5L330 354V331Z" fill="#F44D8D"/>
<path d="M138.914 127.173L167.449 122C167.449 122 169.576 153.479 173.192 173.298C176.739 192.733 185.645 222.364 185.645 222.364L157.11 227.537C157.11 227.537 155.098 196.82 151.545 177.223C147.992 157.626 138.914 127.173 138.914 127.173Z" fill="white"/>
<rect x="172.703" y="167.797" width="13" height="23" transform="rotate(79.7237 172.703 167.797)" fill="#EC4283"/>
<path fill-rule="evenodd" clip-rule="evenodd" d="M138.128 196.406C143.622 192.38 151.543 182.813 151.104 177.592L154.964 176.893C154.885 181.245 152.504 191.262 144.37 201.41L138.128 196.406Z" fill="#F44D8D"/>
<path fill-rule="evenodd" clip-rule="evenodd" d="M155.664 186.512C155.249 182.657 154.268 179.076 153.527 177.046L157.697 176.29C158.638 178.868 162.898 188.377 163.166 190.869C163.381 192.862 164.249 195.176 162.223 199.678L154.698 196.707C155.86 194.127 156.09 190.457 155.664 186.512Z" fill="#F44D8D"/>
<circle opacity="0.5" cx="119" cy="209" r="3" fill="white"/>
<circle opacity="0.5" cx="345" cy="79" r="6" fill="white"/>
<circle opacity="0.5" cx="77" cy="110" r="5" stroke="#C2D4FF" stroke-width="4"/>
<circle opacity="0.5" cx="77" cy="320" r="5" stroke="#C2D4FF" stroke-width="4"/>
<circle opacity="0.5" cx="442" cy="349" r="5" stroke="#C2D4FF" stroke-width="4"/>
<circle opacity="0.5" cx="42" cy="352" r="3" stroke="#C2D4FF" stroke-width="2"/>
<circle opacity="0.5" cx="464" cy="318" r="3" stroke="#C2D4FF" stroke-width="2"/>
<circle opacity="0.5" cx="3" cy="347" r="2.5" stroke="#C2D4FF"/>
<circle opacity="0.5" cx="494" cy="353" r="2.5" stroke="#C2D4FF"/>
<circle cx="360" cy="198" r="4" fill="#C4C4C4"/>
</svg>
