<svg width="691" height="551" viewBox="0 0 691 551" fill="none" xmlns="http://www.w3.org/2000/svg">
<path d="M14.9186 250.386C-15.4814 309.986 2.00002 389.5 78.5 419C155 448.5 332.163 394.186 430.963 381.386C529.763 368.586 587.919 290.719 591.419 250.386C632.419 27.8857 469.919 -4.11435 419.419 0.385647C368.919 4.88565 301.463 80.8856 274.463 110.886C252.863 134.886 231.252 164.886 193.419 166.386C146.585 169.552 45.3186 190.786 14.9186 250.386Z" fill="#EDF2FF"/>
<path d="M259 489.5C205 437 188.7 385.4 205.5 283C222.3 180.6 238.892 181.823 323.559 151.156C348.559 136.656 356.2 181.4 431 305C448.167 328.667 493.5 374.5 627.5 267.5" stroke="#326FFF" stroke-width="6" stroke-linecap="round" stroke-dasharray="2 20"/>
<path d="M538.048 357.119C545.84 382.198 517.508 396.637 506.435 400.26C455.517 416.919 373.928 369.306 356.737 346.455C346.786 333.229 340.891 311.662 340.851 300.9C341.091 273.953 353.897 220.289 403.204 221.204C452.511 222.12 453.568 244.191 456.224 261.268C458.88 278.345 462.445 305.128 493.958 320.754C525.471 336.379 534.459 345.57 538.048 357.119Z" fill="#326FFF"/>
<path d="M371.981 275.457C371.981 273.248 373.772 271.457 375.981 271.457H510.504C512.713 271.457 514.504 273.248 514.504 275.457V359.73H371.981V275.457Z" fill="#DEDEDE"/>
<path d="M381.256 283.732C381.256 282.076 382.599 280.732 384.256 280.732H502.229C503.885 280.732 505.229 282.076 505.229 283.732V349.534H381.256V283.732Z" fill="white" stroke="#C5C5C5" stroke-width="2"/>
<path d="M360.947 355.132H525.538V361.666C525.538 364.151 523.523 366.166 521.038 366.166H365.447C362.962 366.166 360.947 364.151 360.947 361.666V355.132Z" fill="#CBCBCB"/>
<rect x="448.895" y="293.381" width="42.6578" height="6.56274" rx="2" fill="#326FFF"/>
<rect x="448.895" y="304.866" width="34.4544" height="4.92206" rx="2" fill="#5F8CFF"/>
<rect x="448.895" y="313.069" width="34.4544" height="4.92206" rx="2" fill="#5F8CFF"/>
<circle cx="455.458" cy="331.116" r="6.56274" fill="#326FFF"/>
<circle cx="475.146" cy="331.116" r="6.56274" fill="#326FFF"/>
<path d="M452.176 330.296L454.637 332.757L456.688 330.707L458.739 328.656" stroke="white" stroke-width="2"/>
<path d="M471.864 330.296L474.325 332.757L476.376 330.707L478.427 328.656" stroke="white" stroke-width="2"/>
<path d="M431.05 316.053C431.05 325.509 423.384 333.174 413.929 333.174C404.473 333.174 396.807 325.509 396.807 316.053C396.807 306.597 404.473 298.932 413.929 298.932" stroke="#326FFF" stroke-opacity="0.3" stroke-width="8" stroke-linejoin="round"/>
<path d="M431.749 312.908C431.749 305.189 425.491 298.932 417.772 298.932" stroke="#326FFF" stroke-width="8" stroke-linejoin="round"/>
<path d="M313.475 68.6937C289.981 61.2179 262.498 63.7831 248.143 68.6936C231.132 74.2104 198.03 97.1976 206.306 141.794C209.168 157.216 218.035 175.707 234.811 191.811C257.798 213.879 349.168 228.092 396.184 189.972C416.5 173.5 410.436 163.862 427.447 144.092C445.432 123.191 433.042 91.9122 398.482 95.819C356.185 100.6 353.167 124.17 350.715 117.427C337.107 83.5897 326.761 72.9211 313.475 68.6937Z" fill="#14E298"/>
<path d="M295.038 189.148L315.727 168L336.416 189.148" stroke="#DEDEDE" stroke-width="4" stroke-linecap="round" stroke-linejoin="round"/>
<path d="M315.267 189.148V168" stroke="#DEDEDE" stroke-width="4" stroke-linecap="round" stroke-linejoin="round"/>
<rect x="243.546" y="86.1636" width="141.604" height="89.192" rx="4" fill="#FEFEFE"/>
<path d="M239.868 90.1636C239.868 87.9544 241.659 86.1636 243.868 86.1636H384.828C387.037 86.1636 388.828 87.9544 388.828 90.1636V97.1976H239.868V90.1636Z" fill="#DEDEDE"/>
<path d="M270.211 161.126C270.211 157.813 272.898 155.126 276.211 155.126H277.406C278.511 155.126 279.406 156.022 279.406 157.126V162.483H270.211V161.126Z" fill="#14E298"/>
<path d="M290.441 155.609C290.441 152.296 293.127 149.609 296.441 149.609H297.636C298.74 149.609 299.636 150.505 299.636 151.609V162.482H290.441V155.609Z" fill="#14E298"/>
<path d="M310.67 149.173C310.67 145.859 313.356 143.173 316.67 143.173H317.865C318.969 143.173 319.865 144.068 319.865 145.173V162.482H310.67V149.173Z" fill="#14E298"/>
<path d="M330.899 141.817C330.899 138.503 333.585 135.817 336.899 135.817H338.094C339.199 135.817 340.094 136.712 340.094 137.817V162.483H330.899V141.817Z" fill="#14E298"/>
<path d="M351.128 134.461C351.128 131.147 353.814 128.461 357.128 128.461H358.323C359.428 128.461 360.323 129.356 360.323 130.461V162.483H351.128V134.461Z" fill="#14E298"/>
<rect x="272.051" y="106.393" width="55.1703" height="5.51703" rx="2" fill="#14E298"/>
<rect x="272.051" y="115.588" width="55.1703" height="10.1146" rx="2" fill="#C6E5DA"/>
<circle cx="260.557" cy="114.208" r="7.81579" fill="#14E298"/>
<path d="M199 207.5C186 197.5 175 186.701 154.5 197.5C141.129 204.544 134.11 225.998 131.316 232.007C109.215 279.533 88.9397 297.2 77.1749 314.452C53.8376 348.674 72.7761 361.391 81.6022 370.005C90.4283 378.619 118.911 388.095 167.822 375.429C228.96 359.596 269.036 339.065 294.069 307.467C319.102 275.87 302.934 256.225 281.008 247.047C258.239 237.517 227.182 229.179 199 207.5Z" fill="#F9E428"/>
<rect x="103.105" y="251.74" width="151" height="109" rx="4" fill="#DEDEDE"/>
<rect x="109.105" y="257.74" width="139" height="97" rx="4" fill="#FEFEFE"/>
<circle cx="124.605" cy="263.24" r="1.5" fill="#14E298"/>
<circle cx="119.605" cy="263.24" r="1.5" fill="#326FFF"/>
<circle cx="114.605" cy="263.24" r="1.5" fill="#F44D8D"/>
<rect x="129.105" y="298.74" width="99" height="14" rx="4" fill="#FFF6A9"/>
<rect x="129.105" y="322.741" width="99" height="14" rx="4" fill="#FFF6A9"/>
<rect x="129.105" y="274.74" width="99" height="14" rx="4" fill="#326FFF"/>
<circle cx="138.105" cy="281.74" r="5" fill="white"/>
<path d="M135.105 281.34L137.355 283.74L139.23 281.74L141.105 279.74" stroke="#326FFF" stroke-width="2"/>
<rect x="111.105" y="295.74" width="99" height="14" rx="4" fill="#326FFF"/>
<circle cx="120.105" cy="302.74" r="5" fill="white"/>
<path d="M117.105 302.34L119.355 304.74L121.23 302.74L123.105 300.74" stroke="#326FFF" stroke-width="2"/>
<rect x="96.1055" y="317.74" width="99" height="14" rx="4" fill="#326FFF"/>
<circle cx="105.105" cy="324.74" r="5" fill="white"/>
<path d="M102.105 324.34L104.355 326.74L106.23 324.74L108.105 322.74" stroke="#326FFF" stroke-width="2"/>
<path d="M301.773 527.078L277.139 481.855L272.246 502.257L252.318 511.382L301.773 527.078Z" fill="#3FEFAC"/>
<path d="M277.139 481.855L301.773 527.078L252.318 511.382" stroke="#148F60" stroke-width="2" stroke-linecap="round" stroke-linejoin="round"/>
<line x1="280.413" y1="510.429" x2="269.176" y2="500.983" stroke="#148F60" stroke-width="2" stroke-linecap="round"/>
<path d="M669.813 222.651L622.913 243.918L642.903 250.287L650.549 270.828L669.813 222.651Z" fill="#3FEFAC"/>
<path d="M622.913 243.918L669.813 222.651L650.549 270.828" stroke="#148F60" stroke-width="2" stroke-linecap="round" stroke-linejoin="round"/>
<line x1="651.649" y1="242.738" x2="641.408" y2="253.256" stroke="#148F60" stroke-width="2" stroke-linecap="round"/>
</svg>
