<svg width="215" height="163" viewBox="0 0 215 163" fill="none" xmlns="http://www.w3.org/2000/svg">
<g opacity="0.1">
<path fill-rule="evenodd" clip-rule="evenodd" d="M99.9557 53.3408C100.027 52.247 100.063 51.1436 100.063 50.0317C100.063 22.4 77.6634 0 50.0317 0C22.4 0 0 22.4 0 50.0317C0 74.3265 17.3164 94.5769 40.2801 99.1136C32.3647 110.194 23.2303 118.817 17.1222 123.398C7.40201 130.689 5.43207 144.478 12.7222 154.198C20.0124 163.919 33.802 165.889 43.5222 158.598C54.5592 150.321 69.7804 135.463 81.6107 116.403C92.089 99.5216 100.896 77.6869 99.9557 53.3408Z" fill="#4163B2"/>
<path fill-rule="evenodd" clip-rule="evenodd" d="M214.753 53.3407C214.825 52.2469 214.861 51.1436 214.861 50.0317C214.861 22.4 192.461 0 164.829 0C137.198 0 114.798 22.4 114.798 50.0317C114.798 74.3266 132.114 94.5769 155.078 99.1136C147.162 110.194 138.028 118.817 131.92 123.398C122.2 130.689 120.23 144.478 127.52 154.198C134.81 163.919 148.6 165.889 158.32 158.598C169.357 150.321 184.578 135.463 196.408 116.403C206.887 99.5216 215.694 77.6869 214.753 53.3407Z" fill="#4163B2"/>
</g>
</svg>
