<svg width="230" height="160" viewBox="0 0 230 160" fill="none" xmlns="http://www.w3.org/2000/svg">
<g opacity="0.1">
<path fill-rule="evenodd" clip-rule="evenodd" d="M97.7666 57.5562C98.2272 54.8508 98.4671 52.0702 98.4671 49.2336C98.4671 22.0426 76.4245 0 49.2336 0C22.0426 0 0 22.0426 0 49.2336C0 73.3878 17.394 93.4794 40.3395 97.6659C32.4683 108.746 23.3422 117.372 17.2383 121.949C7.95996 128.908 6.07956 142.071 13.0383 151.349C19.9971 160.628 33.16 162.508 42.4383 155.549C53.242 147.447 68.1628 132.884 79.7572 114.204C89.2959 98.8364 97.3978 79.3177 97.7666 57.5562Z" fill="#4163B2"/>
<path fill-rule="evenodd" clip-rule="evenodd" d="M229.056 57.5566C229.517 54.8511 229.757 52.0703 229.757 49.2336C229.757 22.0426 207.714 0 180.523 0C153.332 0 131.29 22.0426 131.29 49.2336C131.29 73.3877 148.684 93.4793 171.629 97.6658C163.758 108.746 154.632 117.372 148.528 121.949C139.249 128.908 137.369 142.071 144.328 151.349C151.287 160.628 164.449 162.508 173.728 155.549C184.531 147.447 199.452 132.884 211.047 114.204C220.585 98.8365 228.687 79.3179 229.056 57.5566Z" fill="#4163B2"/>
</g>
</svg>
