<svg width="39" height="38" viewBox="0 0 39 38" fill="none" xmlns="http://www.w3.org/2000/svg">
<path fill-rule="evenodd" clip-rule="evenodd" d="M8.09951 11.7792L5.76333 23.7962C5.34176 25.9647 6.75795 28.0644 8.92649 28.486L8.93697 28.488L9.04614 27.9265C9.46772 25.7579 11.5674 24.3418 13.736 24.7633C15.9045 25.1849 17.3207 27.2846 16.8991 29.4532L16.79 30.0147C18.9548 30.4297 21.0484 29.0145 21.4693 26.8495L23.8055 14.8325L23.8054 14.8325C23.2632 14.7271 22.9092 14.2022 23.0146 13.66C23.12 13.1179 23.6449 12.7638 24.187 12.8692L24.1871 12.8693L25.3321 6.97979C25.7537 4.81125 24.3375 2.71155 22.1689 2.28997L22.0451 2.26589C21.2799 3.87452 19.4994 4.82688 17.6699 4.47121C15.8404 4.11555 14.5464 2.56548 14.4396 0.787342L14.316 0.7633C12.1474 0.341723 10.0477 1.75792 9.62613 3.92646L8.48118 9.81592C9.02326 9.92136 9.37725 10.4463 9.27187 10.9884C9.16648 11.5305 8.64161 11.8845 8.09951 11.7792ZM21.0513 13.2784C21.1567 12.7362 20.8027 12.2113 20.2605 12.1059C19.7184 12.0005 19.1935 12.3546 19.0881 12.8967C18.9827 13.4388 19.3367 13.9638 19.8789 14.0691C20.421 14.1745 20.9459 13.8205 21.0513 13.2784ZM16.3341 11.3426C16.8762 11.448 17.2302 11.9729 17.1248 12.515C17.0195 13.0572 16.4945 13.4112 15.9524 13.3058C15.4103 13.2004 15.0562 12.6755 15.1616 12.1334C15.267 11.5912 15.7919 11.2372 16.3341 11.3426ZM13.1984 11.7517C13.3037 11.2096 12.9497 10.6846 12.4076 10.5792C11.8654 10.4738 11.3405 10.8279 11.2351 11.37C11.1297 11.9122 11.4838 12.4371 12.0259 12.5425C12.568 12.6479 13.093 12.2938 13.1984 11.7517Z" fill="#F44D8D"/>
<path fill-rule="evenodd" clip-rule="evenodd" d="M24.5852 17.4464C25.1234 17.3223 25.459 16.7854 25.3349 16.2473L31.1815 14.8989C33.3341 14.4024 35.4816 15.745 35.9781 17.8976L36.0064 18.0204C34.4251 18.8408 33.5349 20.6534 33.9537 22.4695C34.3726 24.2857 35.9667 25.5252 37.7476 25.5702L37.7759 25.693C38.2724 27.8456 36.9298 29.9932 34.7772 30.4896L28.9307 31.838C28.8065 31.2999 28.2697 30.9642 27.7315 31.0883C27.1933 31.2124 26.8577 31.7493 26.9818 32.2875L7.4934 36.7821C5.34077 37.2786 3.19326 35.936 2.69679 33.7834L2.66847 33.6606C4.24978 32.8402 5.13999 31.0277 4.72112 29.2115C4.30226 27.3953 2.70814 26.1558 0.927251 26.1108L0.89893 25.988C0.402465 23.8354 1.74505 21.6879 3.89768 21.1914L23.3861 16.6967C23.5102 17.2349 24.0471 17.5706 24.5852 17.4464ZM27.282 29.1395C27.8202 29.0154 28.1558 28.4785 28.0317 27.9403C27.9076 27.4022 27.3707 27.0665 26.8326 27.1906C26.2944 27.3148 25.9588 27.8516 26.0829 28.3898C26.207 28.928 26.7439 29.2636 27.282 29.1395ZM27.1328 24.0426C27.2569 24.5808 26.9213 25.1177 26.3831 25.2418C25.8449 25.3659 25.3081 25.0303 25.184 24.4921C25.0598 23.954 25.3955 23.4171 25.9336 23.293C26.4718 23.1688 27.0087 23.5045 27.1328 24.0426ZM25.4842 21.3441C26.0223 21.22 26.358 20.6831 26.2339 20.145C26.1097 19.6068 25.5729 19.2712 25.0347 19.3953C24.4966 19.5194 24.1609 20.0563 24.285 20.5944C24.4091 21.1326 24.946 21.4682 25.4842 21.3441Z" fill="#507EE9"/>
</svg>
