<svg width="1440" height="1242" viewBox="0 0 1440 1242" fill="none" xmlns="http://www.w3.org/2000/svg">
<path d="M783.272 476.885C1056.17 276.394 1336.13 337.882 1442 393.688V1242H-2V476.885C146.051 560.424 510.377 677.377 783.272 476.885Z" fill="#F9E428"/>
<path opacity="0.3" d="M1359.68 419.224C1432.68 329.724 1453.68 538.224 1453.68 556.724C1461.18 710.224 1476.18 1026.82 1476.18 1065.22C1476.18 1113.22 1155.68 992.224 851.678 1065.22C608.478 1123.62 611.345 983.891 643.178 906.724C662.011 867.891 707.978 804.324 741.178 860.724C774.378 917.124 785.678 884.224 787.178 860.724C806.178 714.724 903.178 652.224 959.678 702.724C1016.18 753.224 1032.68 685.724 1059.68 635.724C1086.68 585.724 1103.68 544.224 1174.18 600.724C1230.58 645.924 1257.68 605.557 1264.18 579.724C1271.68 556.057 1301.28 490.824 1359.68 419.224Z" fill="url(#paint0_linear)"/>
<path d="M163.321 330.36C120.487 284.416 -24.6215 298.652 -74.2503 330.36C-87.4127 463.232 -110.371 734.152 -96.9069 754.859C-80.0763 780.743 183.388 896.574 321.27 754.859C431.575 641.487 349.968 602.359 295.376 596.966C223.954 589.417 92.8909 559.046 140.017 497.96C187.142 436.873 194.089 363.362 163.321 330.36Z" fill="url(#paint1_linear)"/>
<circle cx="1237" cy="454" r="48" fill="#F9D538"/>
<circle cx="1305.5" cy="338.5" r="83.5" fill="#F9E428"/>
<circle cx="254.5" cy="436.5" r="30.5" fill="#F9E428"/>
<circle cx="51.5" cy="123.5" r="30.5" fill="#F9E428"/>
<circle cx="129.5" cy="224.5" r="64.5" fill="#F9E428"/>
<circle cx="1354.5" cy="140.5" r="30.5" fill="#F9E428"/>
<circle cx="1227.5" cy="92.5" r="5.5" fill="#F9E428"/>
<circle cx="183.5" cy="519.5" r="10.5" fill="#F9E428"/>
<circle cx="146.5" cy="56.5" r="15.5" fill="#F9E428"/>
<circle cx="1279.5" cy="213.5" r="5.5" fill="#F9E428"/>
<circle cx="1300.5" cy="10.5" r="10.5" fill="#F9E428"/>
<circle cx="130" cy="706" r="48" fill="#F9E428"/>
<circle r="21" transform="matrix(-1 0 0 1 109 905)" fill="#F9D23B"/>
<circle r="21" transform="matrix(-1 0 0 1 490 926)" fill="#F9D23B"/>
<circle r="21" transform="matrix(-1 0 0 1 910 1050)" fill="#F9D23B"/>
<circle r="21" transform="matrix(-1 0 0 1 1265 905)" fill="#F9D835"/>
<circle r="40" transform="matrix(-1 0 0 1 1364 606)" fill="#F9E428"/>
<circle r="10" transform="matrix(-1 0 0 1 1231 1081)" fill="#F9D538"/>
<circle r="10" transform="matrix(-1 0 0 1 157 1019)" fill="#F9D33A"/>
<circle r="10" transform="matrix(-1 0 0 1 561 1134)" fill="#F9D33A"/>
<circle r="10" transform="matrix(-1 0 0 1 1134.69 509)" fill="#F7DC2B"/>
<defs>
<linearGradient id="paint0_linear" x1="1052.18" y1="1048.22" x2="1033.18" y2="288.724" gradientUnits="userSpaceOnUse">
<stop stop-color="#F9E428"/>
<stop offset="1" stop-color="#F9A76C"/>
</linearGradient>
<linearGradient id="paint1_linear" x1="137.5" y1="301" x2="137.5" y2="823.858" gradientUnits="userSpaceOnUse">
<stop offset="0.4025" stop-color="#F9E428"/>
<stop offset="1" stop-color="#F9A76C" stop-opacity="0.18"/>
</linearGradient>
</defs>
</svg>
